<svg width="496" height="496" viewBox="0 0 496 496" fill="none" xmlns="http://www.w3.org/2000/svg">
<path fill-rule="evenodd" clip-rule="evenodd" d="M181.798 207.404H181.8C168.936 207.404 158.481 196.932 158.481 184.071C158.481 171.204 168.942 160.738 181.809 160.738C194.676 160.738 205.142 171.203 205.142 184.071C205.142 196.933 194.682 207.398 181.82 207.404H181.798ZM372.919 215.688C381.019 215.688 387.602 222.271 387.602 230.371V247.883H250.608L253.738 242.003C257.582 234.773 260.303 227 261.808 218.951L262.42 215.688H372.919ZM357.049 300.818V335.267H306.058V300.818H357.049ZM117.278 352.417V375.209H103.739V352.417C103.739 336.146 90.4919 322.899 74.2209 322.899C57.9479 322.899 44.6989 336.143 44.6989 352.417V375.209H31.1599V352.417C31.1599 328.668 50.4739 309.36 74.2209 309.36C97.9689 309.36 117.278 328.668 117.278 352.417ZM89.2709 421.268C89.2709 426.517 86.5749 431.319 82.1129 434.078C81.5323 434.437 81.053 434.939 80.7202 435.535C80.3874 436.132 80.2121 436.803 80.2109 437.486V454.998C80.2109 458.284 77.5059 460.989 74.2199 460.989C70.9319 460.989 68.2289 458.286 68.2289 454.998V437.486C68.2273 436.803 68.0514 436.131 67.7179 435.535C67.3844 434.938 66.9042 434.437 66.3229 434.078C61.8619 431.32 59.1699 426.515 59.1699 421.268C59.1699 412.97 65.9239 406.227 74.2199 406.227C82.5179 406.228 89.2709 412.97 89.2709 421.268ZM367.488 115.249C369.5 103.339 370.083 91.1849 369.327 79.1329C369.259 78.074 368.774 77.0852 367.978 76.3831C367.182 75.6811 366.141 75.3228 365.082 75.3869C364.024 75.4569 363.037 75.9426 362.337 76.738C361.636 77.5335 361.279 78.5739 361.343 79.6319C362.068 91.0749 361.502 102.611 359.592 113.918C357.738 124.922 354.592 135.668 350.22 145.935C349.806 146.911 349.796 148.011 350.191 148.994C350.585 149.978 351.353 150.766 352.327 151.185C353.304 151.6 354.407 151.611 355.392 151.215C356.377 150.819 357.165 150.048 357.583 149.071C362.209 138.243 365.526 126.859 367.488 115.249ZM384.985 118.202C383.346 127.926 380.852 137.487 377.534 146.774C377.256 147.55 376.746 148.221 376.072 148.695C375.399 149.169 374.595 149.424 373.771 149.424C373.308 149.424 372.854 149.348 372.417 149.192C371.417 148.834 370.601 148.093 370.147 147.133C369.694 146.173 369.64 145.073 369.998 144.073C373.156 135.23 375.53 126.127 377.093 116.869C377.272 115.823 377.857 114.891 378.722 114.277C379.587 113.663 380.66 113.416 381.706 113.592C382.224 113.679 382.72 113.867 383.166 114.146C383.611 114.424 383.997 114.788 384.302 115.217C384.607 115.645 384.824 116.129 384.941 116.641C385.058 117.153 385.073 117.684 384.985 118.202ZM406.327 76.8069C406.257 75.7501 405.773 74.7636 404.979 74.0629C404.184 73.3622 403.145 73.0042 402.088 73.0669C401.03 73.1364 400.042 73.6216 399.34 74.4168C398.639 75.2119 398.28 76.2523 398.343 77.3109C399.606 97.5449 397.68 117.825 392.351 137.396C392.212 137.903 392.175 138.432 392.241 138.953C392.307 139.475 392.475 139.978 392.736 140.434C392.997 140.89 393.345 141.29 393.761 141.612C394.177 141.933 394.652 142.169 395.159 142.307C395.501 142.4 395.856 142.45 396.21 142.45C398.01 142.45 399.596 141.24 400.069 139.502C405.63 119.08 407.644 97.9219 406.327 76.8069ZM423.105 124.627C425.825 108.456 426.645 91.9629 425.618 75.5989C425.229 69.4019 422.41 63.6789 417.756 59.5739C415.463 57.544 412.792 55.9869 409.896 54.9919C406.999 53.9969 403.935 53.5837 400.879 53.7759C394.656 54.1659 388.983 56.9739 384.86 61.6489C380.743 66.3189 378.663 72.3089 379.052 78.5249C379.459 85.0229 379.503 91.5559 379.163 98.0579C379.048 100.251 380.751 102.147 382.945 102.259C385.141 102.372 387.04 100.674 387.156 98.4749C387.515 91.6679 387.467 84.8269 387.036 78.0239C386.779 73.9539 388.165 69.9969 390.862 66.9409C393.568 63.8749 397.298 62.0199 401.381 61.7649C409.786 61.2389 417.106 67.6959 417.633 76.0999C418.622 91.8539 417.839 107.73 415.213 123.297C414.274 128.856 413.099 134.372 411.693 139.832C411.145 141.963 412.437 144.159 414.569 144.708C414.896 144.792 415.233 144.836 415.57 144.836C416.457 144.835 417.319 144.539 418.02 143.995C418.721 143.451 419.221 142.689 419.443 141.83C420.907 136.15 422.129 130.411 423.105 124.627ZM433.172 123.397C432.172 129.825 430.893 136.217 429.322 142.53C429.068 143.559 429.232 144.647 429.778 145.555C430.324 146.464 431.208 147.119 432.236 147.377C433.265 147.631 434.353 147.466 435.261 146.919C436.169 146.372 436.823 145.487 437.079 144.458C438.709 137.909 440.044 131.29 441.079 124.621C441.16 124.102 441.138 123.571 441.013 123.061C440.889 122.55 440.665 122.069 440.355 121.645C440.044 121.221 439.653 120.862 439.204 120.589C438.754 120.317 438.255 120.135 437.736 120.056C437.217 119.975 436.687 119.998 436.176 120.122C435.666 120.246 435.185 120.47 434.761 120.78C434.337 121.09 433.979 121.481 433.706 121.93C433.433 122.379 433.252 122.878 433.172 123.397ZM443.327 74.4879C443.964 84.6277 443.94 94.7982 443.257 104.935C443.116 107.027 441.381 108.669 439.281 108.669C439.164 108.669 439.045 108.661 438.966 108.657C436.809 108.509 435.131 106.595 435.281 104.399C435.948 94.6189 435.968 84.7729 435.353 74.9889C434.801 66.2099 430.799 58.0809 424.205 52.2659C420.951 49.391 417.162 47.1857 413.056 45.7761C408.949 44.3665 404.604 43.7803 400.271 44.0509C388.77 44.7719 378.677 51.3419 373.211 61.4719C372.961 61.9346 372.623 62.3435 372.216 62.6754C371.808 63.0073 371.339 63.2556 370.835 63.4063C370.332 63.5569 369.803 63.6068 369.281 63.5532C368.758 63.4996 368.25 63.3436 367.788 63.0939C367.326 62.8445 366.917 62.5064 366.586 62.0989C366.254 61.6915 366.007 61.2228 365.856 60.7195C365.706 60.2163 365.657 59.6883 365.711 59.1659C365.765 58.6435 365.921 58.1369 366.171 57.6749C372.963 45.0859 385.476 36.9599 399.768 36.0679C410.659 35.3879 421.315 39.0599 429.495 46.2759C437.686 53.5009 442.644 63.5809 443.327 74.4879ZM483.999 99.1519C483.999 147.209 444.908 186.306 396.85 186.306C348.793 186.306 309.691 147.211 309.691 99.1519C309.691 51.0939 348.793 11.9979 396.85 11.9979C444.908 11.9989 483.999 51.0949 483.999 99.1519Z" fill="#9BC9FF"/>
<path fill-rule="evenodd" clip-rule="evenodd" d="M80.01 430.676C78.8504 431.395 77.8932 432.397 77.2287 433.589C76.5641 434.78 76.2142 436.122 76.212 437.486V454.998C76.212 456.076 75.299 456.989 74.221 456.989C73.139 456.989 72.23 456.076 72.23 454.998V437.486C72.2278 436.121 71.8775 434.78 71.2122 433.588C70.5469 432.396 69.5886 431.394 68.428 430.676C66.8182 429.691 65.4891 428.308 64.5684 426.66C63.6477 425.012 63.1665 423.155 63.171 421.268C63.171 415.178 68.131 410.227 74.221 410.227C80.311 410.227 85.271 415.178 85.271 421.268C85.271 425.127 83.299 428.648 80.01 430.676ZM74.221 394.227C59.307 394.227 47.17 406.36 47.17 421.269C47.17 429.119 50.493 436.39 56.23 441.478V454.999C56.23 464.92 64.301 472.991 74.222 472.991C84.143 472.991 92.214 464.92 92.214 454.999V441.478C97.951 436.391 101.274 429.119 101.274 421.269C101.272 406.359 89.131 394.227 74.221 394.227ZM427.05 125.291C426.054 131.186 424.809 137.036 423.318 142.826C422.391 146.436 419.139 148.836 415.572 148.836C414.351 148.835 413.147 148.556 412.05 148.018C410.954 147.48 409.995 146.699 409.247 145.734C408.499 144.769 407.982 143.646 407.735 142.45C407.488 141.255 407.517 140.018 407.821 138.836C409.197 133.486 410.348 128.08 411.271 122.633C413.822 107.498 414.622 91.93 413.643 76.352C413.252 70.116 407.873 65.363 401.633 65.758C398.631 65.942 395.882 67.302 393.863 69.589C391.853 71.867 390.842 74.775 391.03 77.773C391.472 84.738 391.51 91.774 391.152 98.687C390.912 103.097 387.152 106.476 382.742 106.255C380.623 106.144 378.636 105.196 377.216 103.62C375.796 102.044 375.06 99.9685 375.17 97.85C375.499 91.549 375.462 85.129 375.062 78.776C374.61 71.514 377.02 64.493 381.862 59.005C386.7 53.513 393.374 50.242 400.631 49.786C415.663 48.845 428.67 60.314 429.612 75.35C430.669 92.15 429.798 108.951 427.05 125.291ZM388.93 118.867C389.66 114.509 386.732 110.382 382.369 109.648C378.021 108.918 373.889 111.85 373.15 116.204C371.628 125.231 369.313 134.107 366.232 142.728C364.75 146.888 366.909 151.468 371.07 152.959C371.96 153.274 372.868 153.425 373.771 153.425C375.42 153.425 377.028 152.915 378.376 151.965C379.724 151.016 380.745 149.673 381.301 148.121C384.694 138.611 387.247 128.822 388.93 118.867ZM346.541 144.365C350.792 134.389 353.849 123.946 355.648 113.252C357.488 102.381 358.062 91.152 357.352 79.885C357.285 78.8364 357.426 77.7849 357.765 76.7907C358.105 75.7964 358.637 74.8788 359.332 74.0904C360.026 73.3019 360.869 72.6581 361.813 72.1956C362.756 71.7331 363.781 71.461 364.83 71.395C369.249 71.113 373.042 74.473 373.32 78.882C374.101 91.372 373.471 103.834 371.433 115.915C369.419 127.85 366.005 139.506 361.263 150.642C360.428 152.593 358.853 154.133 356.884 154.924C354.915 155.716 352.712 155.694 350.759 154.864C349.793 154.452 348.917 153.853 348.182 153.102C347.447 152.351 346.867 151.463 346.475 150.488C346.084 149.513 345.888 148.471 345.899 147.42C345.91 146.369 346.128 145.331 346.541 144.365ZM362.65 55.776C361.643 57.6432 361.419 59.8341 362.027 61.8666C362.635 63.8991 364.026 65.6068 365.893 66.614C367.76 67.6211 369.951 67.8453 371.984 67.2371C374.016 66.6289 375.724 65.2382 376.731 63.371C381.569 54.401 390.459 48.673 400.521 48.043C416.508 47.04 430.349 59.244 431.361 75.24C431.961 84.8604 431.938 94.5096 431.291 104.127C430.99 108.532 434.322 112.349 438.731 112.65C438.919 112.659 439.098 112.669 439.282 112.669C443.451 112.669 446.972 109.431 447.249 105.205C447.95 94.969 447.969 84.55 447.32 74.238C445.772 49.436 424.33 30.531 399.519 32.075C383.913 33.054 370.128 41.911 362.65 55.776ZM445.032 125.234C445.193 124.196 445.148 123.136 444.899 122.115C444.651 121.094 444.203 120.132 443.583 119.284C442.962 118.436 442.18 117.719 441.282 117.173C440.384 116.628 439.387 116.264 438.349 116.104C433.982 115.426 429.901 118.415 429.219 122.782C428.239 129.096 426.978 135.363 425.44 141.564C425.178 142.586 425.12 143.65 425.271 144.695C425.422 145.739 425.778 146.743 426.318 147.65C426.859 148.556 427.574 149.346 428.421 149.975C429.269 150.604 430.232 151.058 431.256 151.313C432.28 151.568 433.345 151.617 434.388 151.458C435.431 151.3 436.433 150.936 437.335 150.389C438.237 149.841 439.022 149.12 439.644 148.268C440.267 147.416 440.714 146.449 440.961 145.423C442.62 138.758 443.979 132.021 445.032 125.234ZM403.928 140.553C409.543 119.935 411.688 98.404 410.319 76.558C410.051 72.153 406.248 68.802 401.839 69.075C399.721 69.2084 397.743 70.1771 396.339 71.768C394.935 73.3589 394.22 75.4421 394.351 77.56C395.608 97.651 393.64 117.431 388.492 136.345C388.215 137.359 388.141 138.417 388.273 139.46C388.406 140.503 388.743 141.509 389.265 142.421C389.787 143.334 390.483 144.134 391.315 144.777C392.146 145.419 393.097 145.892 394.111 146.167C394.795 146.352 395.501 146.447 396.21 146.449C399.73 146.45 402.959 144.111 403.928 140.553ZM353.049 331.267H310.058V304.818H353.049V331.267ZM354.89 288.817H308.218C300.411 288.817 294.062 295.165 294.062 302.978V333.107C294.062 340.919 300.411 347.268 308.218 347.268H354.89C362.702 347.268 369.051 340.919 369.051 333.107V302.978C369.05 295.166 362.702 288.817 354.89 288.817ZM372.919 361.476C378.811 361.476 383.602 356.676 383.602 350.788V259.883H246.271C230.59 277.913 207.52 289.349 181.81 289.349C176.346 289.346 170.895 288.82 165.531 287.777V350.788C165.531 356.676 170.322 361.476 176.219 361.476H372.919ZM181.81 134.524C220.081 134.524 251.222 165.665 251.222 203.936C251.222 218.196 246.892 231.463 239.49 242.498C233.518 227.435 221.878 215.313 207.069 208.736C213.3 202.364 217.14 193.662 217.14 184.071C217.14 164.587 201.289 148.737 181.81 148.737C162.331 148.737 146.481 164.587 146.481 184.071C146.481 193.662 150.321 202.364 156.552 208.736C141.85 215.263 130.122 227.344 124.131 242.498C116.465 231.1 112.38 217.672 112.398 203.936C112.398 165.665 143.529 134.524 181.81 134.524ZM162.481 184.071C162.481 194.731 171.15 203.399 181.8 203.404H181.818C192.468 203.399 201.142 194.731 201.142 184.071C201.142 173.412 192.469 164.738 181.809 164.738C171.15 164.738 162.481 173.412 162.481 184.071ZM136.621 256.556C140.781 235.119 159.55 219.405 181.8 219.405H181.818C204.069 219.405 222.828 235.119 227.002 256.556C214.846 267.009 199.057 273.348 181.808 273.348C164.561 273.348 148.768 267.009 136.621 256.556ZM383.602 230.371V243.883H257.269C261.305 236.295 264.161 228.136 265.74 219.688H372.919C378.811 219.688 383.602 224.479 383.602 230.371ZM372.919 203.686H267.208C267.081 156.704 228.819 118.527 181.809 118.527C134.709 118.527 96.401 156.84 96.401 203.935C96.401 239.617 118.389 270.236 149.529 282.994V350.787C149.529 365.499 161.502 377.476 176.218 377.476H372.918C387.63 377.476 399.602 365.498 399.602 350.787V230.371C399.603 215.659 387.631 203.686 372.919 203.686ZM248.002 479.997C375.931 479.997 479.999 375.929 479.999 248C479.999 221.019 475.439 194.74 466.45 169.698C448.529 187.375 423.939 198.307 396.85 198.307C342.169 198.307 297.69 153.824 297.69 99.152C297.69 72.054 308.618 47.468 326.299 29.552C301.257 20.563 274.978 15.998 248.002 15.998C120.069 15.999 16.001 120.076 16.001 248C16.001 273.564 20.091 298.469 28.162 322.297C38.012 307.298 54.973 297.359 74.222 297.359C104.582 297.359 129.28 322.057 129.28 352.417V371.209H131.84C140.989 371.209 148.443 378.659 148.443 387.808V457.596C179.631 472.448 213.092 479.997 248.002 479.997ZM132.442 479.399V387.807C132.438 387.649 132.373 387.498 132.261 387.386C132.149 387.274 131.998 387.209 131.84 387.205H16.598C16.4405 387.21 16.291 387.276 16.18 387.387C16.069 387.499 16.005 387.649 16.001 387.807V479.399C16.001 479.714 16.283 479.997 16.598 479.997H131.839C132.159 479.997 132.442 479.715 132.442 479.399ZM56.7 371.208V352.416C56.7 342.759 64.559 334.9 74.221 334.9C83.878 334.9 91.742 342.759 91.742 352.416V371.208H56.7ZM35.16 352.417C35.16 330.877 52.681 313.36 74.221 313.36C95.761 313.36 113.278 330.876 113.278 352.417V371.209H107.739V352.417C107.739 333.936 92.698 318.899 74.221 318.899C55.74 318.899 40.699 333.935 40.699 352.417V371.209H35.16V352.417ZM479.999 99.152C479.999 53.3 442.698 15.998 396.85 15.998C351.002 15.998 313.691 53.299 313.691 99.152C313.691 145.005 351.002 182.306 396.85 182.306C442.698 182.306 479.999 145.005 479.999 99.152ZM478.239 155.707C489.43 139.654 496 120.161 496 99.152C496 44.48 451.522 0.00195312 396.85 0.00195312C375.842 0.00195312 356.339 6.57195 340.291 17.759C310.948 5.98395 279.929 0.00195312 248.002 0.00195312C181.762 0.00195312 119.481 25.797 72.64 72.638C25.799 119.479 0 181.756 0 248C0 281.644 6.631 314.235 19.681 344.929C19.3352 347.41 19.1608 349.912 19.159 352.417V371.209H16.599C7.45 371.208 0 378.658 0 387.807V479.399C0 488.557 7.45 495.998 16.599 495.998H131.84C140.989 495.998 148.443 488.558 148.443 479.399V475.187C179.81 488.995 213.243 495.998 248.003 495.998C314.243 495.998 376.52 470.208 423.361 423.367C470.201 376.517 496 314.249 496 248C496 216.068 490.019 185.045 478.239 155.707Z" fill="#6699FF"/>
</svg>
